{"key9": {"modline6": {"displaylinked": 0, "note": 60, "bankmsb": 0, "mmcfunction": "Stop", "min": 0, "cc": 0, "max": 127, "destination": "None", "offset": 0, "oscroute": "None", "source": "None", "ledred": "None", "enable": 0, "gain": 1.0, "table": "Linear", "device": "SSCOM Port 1", "velocity": 127, "mmcid": 1, "ledgreen": "None", "slew": 0, "channel": 1}, "modline4": {"displaylinked": 0, "note": 60, "destination": "None", "mmcfunction": "Stop", "min": 0, "cc": 0, "max": 127, "bankmsb": 0, "offset": 0, "oscroute": "None", "source": "None", "ledred": "None", "enable": 0, "gain": 1.0, "velocity": 127, "device": "SSCOM Port 1", "table": "Linear", "mmcid": 1, "ledgreen": "None", "slew": 0, "channel": 1}, "modline5": {"displaylinked": 0, "note": 60, "bankmsb": 0, "mmcfunction": "Stop", "min": 0, "cc": 0, "max": 127, "destination": "None", "ledgreen": "None", "oscroute": "None", "source": "None", "ledred": "None", "enable": 0, "gain": 1.0, "offset": 0, "device": "SSCOM Port 1", "velocity": 127, "mmcid": 1, "table": "Linear", "slew": 0, "channel": 1}, "modline2": {"displaylinked": 0, "oscroute": "None", "enable": true, "bankmsb": 0, "mmcfunction": "Stop", "min": 0, "cc": 117, "max": 127, "destination": "Note Set", "offset": 252, "note": 91, "source": "Y Live", "ledred": "None", "gain": -4.0, "velocity": 127, "device": "SSCOM Port 1", "table": "Linear", "mmcid": 1, "ledgreen": "None", "slew": 0, "channel": 1}, "modline3": {"displaylinked": 0, "oscroute": "None", "enable": false, "mmcfunction": "Stop", "min": 0, "cc": 0, "max": 127, "bankmsb": 0, "table": "Linear", "ledred": "None", "note": 70, "source": "Foot On", "destination": "Note Set", "gain": 127.0, "offset": 0, "device": "SSCOM Port 1", "velocity": 127, "mmcid": 1, "ledgreen": "None", "slew": 0, "channel": 1}, "modline1": {"displaylinked": 0, "note": 90, "destination": "Note Set", "mmcfunction": "Stop", "min": 0, "cc": 117, "max": 127, "bankmsb": 0, "table": "Linear", "oscroute": "None", "source": "Y Live", "ledred": "None", "enable": true, "gain": 4.0, "offset": -260, "device": "SSCOM Port 1", "velocity": 127, "mmcid": 1, "ledgreen": "None", "slew": 0, "channel": 1}}, "key8": {"modline6": {"displaylinked": 0, "oscroute": "None", "bankmsb": 0, "mmcfunction": "Stop", "min": 0, "cc": 0, "max": 127, "offset": 0, "destination": "CC", "note": 60, "source": "None", "ledred": "None", "enable": 0, "gain": 1.0, "table": "Linear", "device": "SSCOM Port 1", "velocity": 127, "mmcid": 1, "ledgreen": "None", "slew": 0, "channel": 1}, "modline4": {"displaylinked": 0, "note": 60, "enable": 0, "mmcfunction": "Stop", "min": 0, "cc": 94, "max": 127, "bankmsb": 0, "ledred": "None", "offset": 0, "oscroute": "None", "source": "X Live", "destination": "CC", "gain": 1.0, "velocity": 127, "device": "SSCOM Port 1", "table": "Linear", "mmcid": 1, "ledgreen": "None", "slew": 0, "channel": 1}, "modline5": {"displaylinked": 0, "note": 60, "destination": "CC", "mmcfunction": "Stop", "min": 0, "cc": 84, "max": 127, "enable": 0, "bankmsb": 0, "oscroute": "None", "source": "Pressure Live", "ledred": "None", "velocity": 127, "gain": 1.0, "offset": 0, "device": "SSCOM Port 1", "table": "Linear", "mmcid": 1, "ledgreen": "None", "slew": 0, "channel": 1}, "modline2": {"displaylinked": 0, "note": 60, "enable": false, "bankmsb": 0, "mmcfunction": "Stop", "min": 0, "cc": 114, "max": 127, "destination": "CC", "offset": 0, "oscroute": "None", "source": "Pressure Live", "ledred": "None", "gain": 1.0, "table": "Linear", "device": "SSCOM Port 1", "velocity": 127, "mmcid": 1, "ledgreen": "None", "slew": 0, "channel": 1}, "modline3": {"displaylinked": 0, "oscroute": "None", "enable": 0, "mmcfunction": "Stop", "min": 0, "cc": 104, "max": 127, "bankmsb": 0, "destination": "CC", "note": 60, "source": "Foot On", "ledred": "None", "velocity": 127, "gain": 127.0, "offset": 0, "device": "SSCOM Port 1", "table": "Linear", "mmcid": 1, "ledgreen": "None", "slew": 0, "channel": 1}, "modline1": {"displaylinked": 0, "note": 80, "bankmsb": 0, "mmcfunction": "Stop", "min": 0, "cc": 44, "max": 127, "destination": "Note Set", "table": "Linear", "oscroute": "None", "source": "Foot On", "ledred": "None", "enable": true, "gain": 1.0, "offset": 0, "device": "SSCOM Port 1", "velocity": 127, "mmcid": 1, "ledgreen": "None", "slew": 0, "channel": 1}}, "key3": {"modline6": {"displaylinked": 0, "note": 60, "enable": 0, "bankmsb": 0, "mmcfunction": "Stop", "min": 0, "cc": 0, "max": 127, "destination": "None", "offset": 0, "oscroute": "None", "source": "None", "ledred": "None", "gain": 1.0, "table": "Linear", "device": "SSCOM Port 1", "velocity": 127, "mmcid": 1, "ledgreen": "None", "slew": 0, "channel": 1}, "modline4": {"displaylinked": 0, "oscroute": "None", "destination": "None", "mmcfunction": "Stop", "min": 0, "cc": 0, "max": 127, "bankmsb": 0, "offset": 0, "note": 60, "source": "None", "ledred": "None", "enable": 0, "gain": 1.0, "table": "Linear", "device": "SSCOM Port 1", "velocity": 127, "mmcid": 1, "ledgreen": "None", "slew": 0, "channel": 1}, "modline5": {"displaylinked": 0, "oscroute": "None", "destination": "None", "mmcfunction": "Stop", "min": 0, "cc": 0, "max": 127, "bankmsb": 0, "offset": 0, "note": 60, "source": "None", "ledred": "None", "enable": 0, "gain": 1.0, "velocity": 127, "device": "SSCOM Port 1", "table": "Linear", "mmcid": 1, "ledgreen": "None", "slew": 0, "channel": 1}, "modline2": {"displaylinked": true, "note": 60, "destination": "CC", "mmcfunction": "Stop", "min": 0, "cc": 32, "max": 127, "bankmsb": 0, "offset": 0, "oscroute": "None", "source": "Pressure Live", "ledred": "None", "enable": 1, "gain": 5.0, "table": "Linear", "device": "SSCOM Port 1", "velocity": 127, "mmcid": 1, "ledgreen": "True", "slew": 0, "channel": 1}, "modline3": {"displaylinked": 0, "note": 60, "bankmsb": 0, "mmcfunction": "Stop", "min": 0, "cc": 0, "max": 127, "destination": "None", "offset": 0, "oscroute": "None", "source": "None", "ledred": "None", "enable": 0, "gain": 1.0, "table": "Linear", "device": "SSCOM Port 1", "velocity": 127, "mmcid": 1, "ledgreen": "None", "slew": 0, "channel": 1}, "modline1": {"displaylinked": false, "note": 60, "enable": 0, "mmcfunction": "Stop", "min": 0, "cc": 30, "max": 127, "bankmsb": 0, "table": "Linear", "destination": "CC", "oscroute": "None", "source": "Foot On", "ledred": "None", "gain": 127.0, "offset": 0, "device": "SSCOM Port 1", "velocity": 127, "mmcid": 1, "ledgreen": "None", "slew": 0, "channel": 1}}, "key2": {"modline6": {"displaylinked": 0, "oscroute": "None", "enable": 0, "bankmsb": 0, "mmcfunction": "Stop", "min": 0, "cc": 0, "max": 127, "destination": "None", "table": "Linear", "note": 60, "source": "None", "ledred": "None", "gain": 1.0, "offset": 0, "device": "SSCOM Port 1", "velocity": 127, "mmcid": 1, "ledgreen": "None", "slew": 0, "channel": 1}, "modline4": {"displaylinked": 0, "note": 60, "enable": 0, "mmcfunction": "Stop", "min": 0, "cc": 0, "max": 127, "bankmsb": 0, "table": "Linear", "oscroute": "None", "source": "None", "ledred": "None", "velocity": 127, "gain": 1.0, "offset": 0, "device": "SSCOM Port 1", "destination": "None", "mmcid": 1, "ledgreen": "None", "slew": 0, "channel": 1}, "modline5": {"displaylinked": 0, "oscroute": "None", "bankmsb": 0, "mmcfunction": "Stop", "min": 0, "cc": 0, "max": 127, "destination": "None", "ledgreen": "None", "note": 60, "source": "None", "ledred": "None", "enable": 0, "gain": 1.0, "offset": 0, "device": "SSCOM Port 1", "velocity": 127, "mmcid": 1, "table": "Linear", "slew": 0, "channel": 1}, "modline2": {"displaylinked": 0, "oscroute": "None", "enable": 1, "bankmsb": 0, "mmcfunction": "Stop", "min": 0, "cc": 111, "max": 127, "destination": "Note Set", "table": "Linear", "note": 19, "source": "Foot On", "ledred": "None", "gain": 1.0, "offset": 0, "device": "SSCOM Port 1", "velocity": 127, "mmcid": 1, "ledgreen": "None", "slew": 0, "channel": 1}, "modline3": {"displaylinked": 0, "note": 60, "enable": true, "bankmsb": 0, "mmcfunction": "Stop", "min": 0, "cc": 20, "max": 127, "destination": "CC", "oscroute": "None", "source": "Foot On", "ledred": "None", "velocity": 127, "gain": 1.0, "offset": 0, "device": "SSCOM Port 1", "table": "Linear", "mmcid": 1, "ledgreen": "None", "slew": 0, "channel": 1}, "modline1": {"displaylinked": 0, "oscroute": "None", "enable": 1, "bankmsb": 0, "mmcfunction": "Stop", "min": 0, "cc": 10, "max": 127, "destination": "CC", "offset": 0, "note": 60, "source": "Foot On", "ledred": "None", "gain": 127.0, "table": "Linear", "device": "SSCOM Port 1", "velocity": 127, "mmcid": 1, "ledgreen": "None", "slew": 0, "channel": 1}}, "key1": {"modline6": {"displaylinked": 0, "oscroute": "None", "destination": "None", "mmcfunction": "Stop", "min": 0, "cc": 0, "max": 127, "bankmsb": 0, "offset": 0, "note": 60, "source": "None", "ledred": "None", "enable": 0, "gain": 1.0, "table": "Linear", "device": "SSCOM Port 1", "velocity": 127, "mmcid": 1, "ledgreen": "None", "slew": 0, "channel": 1}, "modline4": {"displaylinked": 0, "oscroute": "None", "enable": 0, "bankmsb": 0, "mmcfunction": "Stop", "min": 0, "cc": 0, "max": 127, "destination": "None", "offset": 0, "note": 60, "source": "None", "ledred": "None", "gain": 1.0, "velocity": 127, "device": "SSCOM Port 1", "table": "Linear", "mmcid": 1, "ledgreen": "None", "slew": 0, "channel": 1}, "modline5": {"displaylinked": 0, "note": 60, "bankmsb": 0, "mmcfunction": "Stop", "min": 0, "cc": 0, "max": 127, "destination": "None", "offset": 0, "oscroute": "None", "source": "None", "ledred": "None", "enable": 0, "gain": 1.0, "velocity": 127, "device": "SSCOM Port 1", "table": "Linear", "mmcid": 1, "ledgreen": "None", "slew": 0, "channel": 1}, "modline2": {"displaylinked": 0, "oscroute": "None", "enable": 1, "bankmsb": 0, "mmcfunction": "Stop", "min": 0, "cc": 111, "max": 127, "destination": "Note Set", "note": 19, "source": "Foot On", "ledred": "None", "velocity": 127, "gain": 1.0, "offset": 0, "device": "SSCOM Port 1", "table": "Linear", "mmcid": 1, "ledgreen": "None", "slew": 0, "channel": 1}, "modline3": {"displaylinked": 0, "note": 60, "enable": 0, "bankmsb": 0, "mmcfunction": "Stop", "min": 0, "cc": 0, "max": 127, "destination": "None", "oscroute": "None", "source": "None", "ledred": "None", "velocity": 127, "gain": 1.0, "offset": 0, "device": "SSCOM Port 1", "table": "Linear", "mmcid": 1, "ledgreen": "None", "slew": 0, "channel": 1}, "modline1": {"displaylinked": 0, "note": 60, "enable": 1, "mmcfunction": "Stop", "min": 0, "cc": 10, "max": 127, "bankmsb": 0, "destination": "CC", "oscroute": "None", "source": "Foot On", "ledred": "None", "velocity": 127, "gain": 127.0, "offset": 0, "device": "SSCOM Port 1", "table": "Linear", "mmcid": 1, "ledgreen": "None", "slew": 0, "channel": 1}}, "key7": {"modline6": {"displaylinked": 0, "note": 60, "enable": 0, "mmcfunction": "Stop", "min": 0, "cc": 0, "max": 127, "bankmsb": 0, "destination": "None", "oscroute": "None", "source": "None", "ledred": "None", "velocity": 127, "gain": 1.0, "offset": 0, "device": "SSCOM Port 1", "table": "Linear", "mmcid": 1, "ledgreen": "None", "slew": 0, "channel": 1}, "modline4": {"displaylinked": 0, "note": 72, "enable": true, "mmcfunction": "Stop", "min": 0, "cc": 0, "max": 127, "bankmsb": 0, "ledgreen": "None", "destination": "Note Set", "oscroute": "None", "source": "Long Trig", "ledred": "None", "gain": 1.0, "offset": 0, "device": "SSCOM Port 1", "velocity": 127, "mmcid": 1, "table": "Linear", "slew": 0, "channel": 1}, "modline5": {"displaylinked": 0, "note": 60, "bankmsb": 0, "mmcfunction": "Stop", "min": 0, "cc": 0, "max": 127, "destination": "None", "offset": 0, "oscroute": "None", "source": "None", "ledred": "None", "enable": 0, "gain": 1.0, "table": "Linear", "device": "SSCOM Port 1", "velocity": 127, "mmcid": 1, "ledgreen": "None", "slew": 0, "channel": 1}, "modline2": {"displaylinked": 0, "oscroute": "None", "enable": 0, "bankmsb": 0, "mmcfunction": "Stop", "min": 0, "cc": 117, "max": 127, "destination": "Note Set", "table": "Linear", "note": 71, "source": "Y Live", "ledred": "None", "gain": -4.0, "offset": 252, "device": "SSCOM Port 1", "velocity": 127, "mmcid": 1, "ledgreen": "None", "slew": 0, "channel": 1}, "modline3": {"displaylinked": 0, "oscroute": "None", "enable": 1, "mmcfunction": "Stop", "min": 0, "cc": 0, "max": 127, "bankmsb": 0, "ledred": "None", "offset": 0, "note": 70, "source": "Foot On", "destination": "Note Set", "gain": 127.0, "velocity": 127, "device": "SSCOM Port 1", "table": "Linear", "mmcid": 1, "ledgreen": "None", "slew": 0, "channel": 1}, "modline1": {"displaylinked": 0, "note": 70, "bankmsb": 0, "mmcfunction": "Stop", "min": 0, "cc": 117, "max": 127, "enable": 0, "destination": "Note Set", "oscroute": "None", "source": "Y Live", "ledred": "None", "velocity": 127, "gain": 4.0, "offset": -252, "device": "SSCOM Port 1", "table": "Linear", "mmcid": 1, "ledgreen": "None", "slew": 0, "channel": 1}}, "key6": {"modline6": {"displaylinked": 0, "note": 60, "enable": 0, "mmcfunction": "Stop", "min": 0, "cc": 0, "max": 127, "bankmsb": 0, "ledgreen": "None", "destination": "CC", "oscroute": "None", "source": "None", "ledred": "None", "gain": 1.0, "offset": 0, "device": "SSCOM Port 1", "velocity": 127, "mmcid": 1, "table": "Linear", "slew": 0, "channel": 1}, "modline4": {"displaylinked": 0, "note": 60, "enable": 0, "mmcfunction": "Stop", "min": 0, "cc": 94, "max": 127, "bankmsb": 0, "ledred": "None", "offset": 0, "oscroute": "None", "source": "X Live", "destination": "CC", "gain": 1.0, "velocity": 127, "device": "SSCOM Port 1", "table": "Linear", "mmcid": 1, "ledgreen": "None", "slew": 0, "channel": 1}, "modline5": {"displaylinked": 0, "note": 60, "bankmsb": 0, "mmcfunction": "Stop", "min": 0, "cc": 84, "max": 127, "destination": "CC", "offset": 0, "oscroute": "None", "source": "Pressure Live", "ledred": "None", "enable": 0, "gain": 1.0, "velocity": 127, "device": "SSCOM Port 1", "table": "Linear", "mmcid": 1, "ledgreen": "None", "slew": 0, "channel": 1}, "modline2": {"displaylinked": 0, "oscroute": "None", "enable": 1, "bankmsb": 0, "mmcfunction": "Stop", "min": 0, "cc": 60, "max": 127, "destination": "CC", "offset": 0, "note": 60, "source": "Foot On", "ledred": "None", "gain": 127.0, "velocity": 127, "device": "SSCOM Port 1", "table": "Linear", "mmcid": 1, "ledgreen": "None", "slew": 0, "channel": 1}, "modline3": {"displaylinked": 0, "note": 60, "bankmsb": 0, "mmcfunction": "Stop", "min": 127, "cc": 10, "max": 127, "enable": 1, "destination": "CC", "oscroute": "None", "source": "Foot On", "ledred": "None", "velocity": 127, "gain": 127.0, "offset": 0, "device": "SSCOM Port 1", "table": "Linear", "mmcid": 1, "ledgreen": "None", "slew": 0, "channel": 1}, "modline1": {"displaylinked": 0, "note": 60, "bankmsb": 0, "mmcfunction": "Stop", "min": 0, "cc": 44, "max": 127, "offset": 0, "destination": "Note Set", "oscroute": "None", "source": "Foot On", "ledred": "None", "enable": 1, "gain": 1.0, "velocity": 127, "device": "SSCOM Port 1", "table": "Linear", "mmcid": 1, "ledgreen": "None", "slew": 0, "channel": 1}}, "key5": {"modline6": {"displaylinked": 0, "oscroute": "None", "destination": "CC", "mmcfunction": "Stop", "min": 0, "cc": 0, "max": 127, "bankmsb": 0, "table": "Linear", "note": 60, "source": "Modline 1 Output", "ledred": "None", "enable": 0, "gain": 1.0, "offset": 0, "device": "SSCOM Port 1", "velocity": 127, "mmcid": 1, "ledgreen": "None", "slew": 0, "channel": 1}, "modline4": {"displaylinked": 0, "note": 60, "bankmsb": 0, "mmcfunction": "Stop", "min": 0, "cc": 94, "max": 127, "destination": "CC", "offset": 0, "oscroute": "None", "source": "X Live", "ledred": "None", "enable": 0, "gain": 1.0, "table": "Linear", "device": "SSCOM Port 1", "velocity": 127, "mmcid": 1, "ledgreen": "None", "slew": 0, "channel": 1}, "modline5": {"displaylinked": 0, "oscroute": "None", "bankmsb": 0, "mmcfunction": "Stop", "min": 0, "cc": 84, "max": 127, "destination": "CC", "offset": 0, "note": 60, "source": "Pressure Live", "ledred": "None", "enable": 0, "gain": 1.0, "table": "Linear", "device": "SSCOM Port 1", "velocity": 127, "mmcid": 1, "ledgreen": "None", "slew": 0, "channel": 1}, "modline2": {"displaylinked": 0, "note": 60, "enable": 0, "bankmsb": 0, "mmcfunction": "Stop", "min": 0, "cc": 114, "max": 127, "destination": "CC", "offset": 0, "oscroute": "None", "source": "Pressure Live", "ledred": "None", "gain": 1.0, "velocity": 127, "device": "SSCOM Port 1", "table": "Linear", "mmcid": 1, "ledgreen": "None", "slew": 0, "channel": 1}, "modline3": {"displaylinked": 0, "oscroute": "None", "enable": 0, "bankmsb": 0, "mmcfunction": "Stop", "min": 0, "cc": 104, "max": 127, "destination": "CC", "offset": 0, "note": 60, "source": "Foot On", "ledred": "None", "gain": 127.0, "table": "Linear", "device": "SSCOM Port 1", "velocity": 127, "mmcid": 1, "ledgreen": "None", "slew": 0, "channel": 1}, "modline1": {"displaylinked": 0, "oscroute": "None", "destination": "Note Set", "mmcfunction": "Stop", "min": 0, "cc": 44, "max": 127, "bankmsb": 0, "offset": 0, "note": 54, "source": "Foot On", "ledred": "None", "enable": 1, "gain": 1.0, "table": "Linear", "device": "SSCOM Port 1", "velocity": 127, "mmcid": 1, "ledgreen": "None", "slew": 0, "channel": 1}}, "key4": {"modline6": {"displaylinked": 0, "oscroute": "None", "destination": "CC", "mmcfunction": "Stop", "min": 0, "cc": 0, "max": 127, "enable": 0, "bankmsb": 0, "note": 60, "source": "None", "ledred": "None", "velocity": 127, "gain": 1.0, "offset": 0, "device": "SSCOM Port 1", "table": "Linear", "mmcid": 1, "ledgreen": "None", "slew": 0, "channel": 1}, "modline4": {"displaylinked": 0, "oscroute": "None", "enable": 0, "bankmsb": 0, "mmcfunction": "Stop", "min": 0, "cc": 94, "max": 127, "destination": "CC", "table": "Linear", "note": 60, "source": "X Live", "ledred": "None", "gain": 1.0, "offset": 0, "device": "SSCOM Port 1", "velocity": 127, "mmcid": 1, "ledgreen": "None", "slew": 0, "channel": 1}, "modline5": {"displaylinked": 0, "note": 60, "destination": "CC", "mmcfunction": "Stop", "min": 0, "cc": 84, "max": 127, "enable": 0, "bankmsb": 0, "oscroute": "None", "source": "Pressure Live", "ledred": "None", "velocity": 127, "gain": 1.0, "offset": 0, "device": "SSCOM Port 1", "table": "Linear", "mmcid": 1, "ledgreen": "None", "slew": 0, "channel": 1}, "modline2": {"displaylinked": 0, "note": 60, "destination": "CC", "mmcfunction": "Stop", "min": 0, "cc": 114, "max": 127, "bankmsb": 0, "velocity": 127, "oscroute": "None", "source": "Pressure Live", "ledred": "None", "enable": 0, "gain": 1.0, "offset": 0, "device": "SSCOM Port 1", "table": "Linear", "mmcid": 1, "ledgreen": "None", "slew": 0, "channel": 1}, "modline3": {"displaylinked": 0, "note": 60, "bankmsb": 0, "mmcfunction": "Stop", "min": 0, "cc": 104, "max": 127, "destination": "CC", "table": "Linear", "oscroute": "None", "source": "Foot On", "ledred": "None", "enable": 0, "gain": 127.0, "offset": 0, "device": "SSCOM Port 1", "velocity": 127, "mmcid": 1, "ledgreen": "None", "slew": 0, "channel": 1}, "modline1": {"displaylinked": 0, "oscroute": "None", "enable": 1, "mmcfunction": "Stop", "min": 0, "cc": 44, "max": 127, "bankmsb": 0, "table": "Linear", "note": 44, "source": "Foot On", "ledred": "None", "velocity": 127, "gain": 1.0, "offset": 0, "device": "SSCOM Port 1", "destination": "Note Set", "mmcid": 1, "ledgreen": "None", "slew": 0, "channel": 1}}, "5": {"key": {"prefix": "  ", "displaymode": "Immed Param", "name": "    "}}, "key10": {"modline6": {"displaylinked": 0, "note": 60, "enable": 0, "mmcfunction": "Stop", "min": 0, "cc": 0, "max": 127, "bankmsb": 0, "table": "Linear", "destination": "None", "oscroute": "None", "source": "None", "ledred": "None", "gain": 1.0, "offset": 0, "device": "SSCOM Port 1", "velocity": 127, "mmcid": 1, "ledgreen": "None", "slew": 0, "channel": 1}, "modline4": {"displaylinked": 0, "note": 60, "bankmsb": 0, "mmcfunction": "Stop", "min": 0, "cc": 0, "max": 127, "destination": "None", "table": "Linear", "oscroute": "None", "source": "None", "ledred": "None", "enable": 0, "gain": 1.0, "offset": 0, "device": "SSCOM Port 1", "velocity": 127, "mmcid": 1, "ledgreen": "None", "slew": 0, "channel": 1}, "modline5": {"displaylinked": 0, "oscroute": "None", "enable": 0, "destination": "None", "mmcfunction": "Stop", "min": 0, "cc": 0, "max": 127, "bankmsb": 0, "offset": 0, "note": 60, "source": "None", "ledred": "None", "gain": 1.0, "velocity": 127, "device": "SSCOM Port 1", "table": "Linear", "mmcid": 1, "ledgreen": "None", "slew": 0, "channel": 1}, "modline2": {"displaylinked": 0, "oscroute": "None", "enable": 0, "bankmsb": 0, "mmcfunction": "Stop", "min": 0, "cc": 110, "max": 127, "destination": "CC", "offset": 0, "note": 60, "source": "Pressure Live", "ledred": "None", "gain": 1.0, "table": "Linear", "device": "SSCOM Port 1", "velocity": 127, "mmcid": 1, "ledgreen": "None", "slew": 0, "channel": 1}, "modline3": {"displaylinked": 0, "note": 60, "destination": "None", "mmcfunction": "Stop", "min": 0, "cc": 0, "max": 127, "enable": 0, "bankmsb": 0, "oscroute": "None", "source": "None", "ledred": "None", "velocity": 127, "gain": 1.0, "offset": 0, "device": "SSCOM Port 1", "table": "Linear", "mmcid": 1, "ledgreen": "None", "slew": 0, "channel": 1}, "modline1": {"displaylinked": 0, "oscroute": "None", "enable": true, "bankmsb": 0, "mmcfunction": "Stop", "min": 0, "cc": 4, "max": 127, "destination": "Note Set", "table": "Linear", "note": 100, "source": "Foot On", "ledred": "None", "gain": 127.0, "offset": 0, "device": "SSCOM Port 1", "velocity": 127, "mmcid": 1, "ledgreen": "None", "slew": 0, "channel": 1}}, "1": {"key": {"prefix": "  ", "displaymode": "Always", "name": "    "}}, "3": {"key": {"prefix": "  ", "displaymode": "Initial/Return", "name": "RVRB"}}, "2": {"key": {"prefix": "  ", "displaymode": "Always", "name": "    "}}, "nav": {"modlinemode": 0, "name": "GRAY", "displaymode": "Initial/Return", "prefix": "  ", "modline6": {"displaylinked": 0, "note": 60, "enable": 0, "bankmsb": 0, "mmcfunction": "Stop", "min": 0, "cc": 0, "max": 127, "destination": "None", "oscroute": "None", "source": "None", "gain": 1.0, "offset": 0, "device": "SSCOM Port 1", "velocity": 127, "mmcid": 1, "table": "Linear", "slew": 0, "channel": 1}, "modline4": {"displaylinked": 0, "note": 60, "bankmsb": 0, "mmcfunction": "Stop", "min": 0, "cc": 0, "max": 127, "destination": "None", "offset": 0, "oscroute": "None", "source": "Init", "enable": false, "gain": 1.0, "table": "Linear", "device": "SSCOM Port 1", "velocity": 127, "mmcid": 1, "slew": 0, "channel": 1}, "modline5": {"displaylinked": 0, "oscroute": "None", "bankmsb": 0, "mmcfunction": "Stop", "min": 0, "cc": 0, "max": 127, "destination": "None", "note": 60, "source": "None", "enable": 0, "gain": 1.0, "offset": 0, "device": "SSCOM Port 1", "velocity": 127, "mmcid": 1, "table": "Linear", "slew": 0, "channel": 1}, "modline2": {"displaylinked": false, "oscroute": "None", "enable": 1, "mmcfunction": "Stop", "min": 0, "cc": 7, "max": 127, "bankmsb": 0, "note": 71, "source": "Pedal", "destination": "CC", "gain": 1.0, "offset": 0, "device": "SSCOM Port 1", "velocity": 127, "mmcid": 1, "table": "Linear", "slew": 0, "channel": 1}, "modline3": {"": null, "note": 126, "displaylinked": true, "bankmsb": 0, "mmcfunction": "Stop", "min": 0, "cc": 126, "max": 127, "destination": "CC", "oscroute": "None", "source": "Nav Y Inc-Dec", "enable": true, "gain": 10.0, "offset": 0, "device": "SSCOM Port 1", "velocity": 127, "mmcid": 1, "table": "Linear", "slew": 500, "channel": 1}, "modline1": {"displaylinked": false, "note": 4, "destination": "Program", "mmcfunction": "Stop", "min": 0, "cc": 7, "max": 127, "bankmsb": 0, "offset": 127, "oscroute": "None", "source": "Init", "enable": 1, "gain": 1.0, "velocity": 127, "device": "SSCOM Port 1", "table": "Linear", "mmcid": 1, "slew": 0, "channel": 3}}, "4": {"key": {"prefix": "  ", "displaymode": "Immed Param", "name": "    "}}, "7": {"key": {"prefix": "  ", "displaymode": "Immed Param", "name": "    "}}, "6": {"key": {"prefix": "  ", "displaymode": "Immed Param", "name": "    "}}, "9": {"key": {"prefix": "  ", "displaymode": "None", "name": "    "}}, "8": {"key": {"prefix": "  ", "displaymode": "Immed Param", "name": "    "}}, "preset": {"displayname": "GLOW", "name": "GLOW"}, "10": {"key": {"prefix": "  ", "displaymode": "Always", "name": "    "}}}